<svg width="1320" height="440" viewBox="0 0 1320 440" fill="none" xmlns="http://www.w3.org/2000/svg">
<foreignObject x="-38" y="-5" width="1366" height="520"><div xmlns="http://www.w3.org/1999/xhtml" style="backdrop-filter:blur(12.5px);clip-path:url(#bgblur_0_1494_514_clip_path);height:100%;width:100%"></div></foreignObject><g filter="url(#filter0_dddd_1494_514)" data-figma-bg-blur-radius="25">
<rect x="19" y="21" width="1283" height="398" rx="29" stroke="url(#paint0_linear_1494_514)" stroke-width="2"/>
</g>
<path d="M-60.3751 455.495L-215.855 87.2208C-215.855 87.2208 -130.968 28.3702 -68.263 21.7643C-12.572 15.8973 17.6142 54.3318 73.0265 46.2461C122.839 38.9775 138.576 -17.2567 191.367 -38.0671C287.987 -76.1547 456.421 -16.3914 456.421 -16.3914C456.421 -16.3914 325.486 2.94459 273.32 51.2807C222.857 98.0382 248.486 172.794 198.023 219.552C145.857 267.888 67.0883 238.888 14.922 287.224C-35.5407 333.982 -60.3751 455.495 -60.3751 455.495Z" fill="url(#paint1_linear_1494_514)"/>
<path d="M1399.91 455.495L1555.39 87.2208C1555.39 87.2208 1470.5 28.3702 1407.79 21.7643C1352.1 15.8973 1321.92 54.3318 1266.5 46.2461C1216.69 38.9775 1200.95 -17.2567 1148.16 -38.0671C1051.54 -76.1547 883.109 -16.3914 883.109 -16.3914C883.109 -16.3914 1014.04 2.94459 1066.21 51.2807C1116.67 98.0383 1091.04 172.794 1141.51 219.552C1193.67 267.888 1272.44 238.888 1324.61 287.224C1375.07 333.982 1399.91 455.495 1399.91 455.495Z" fill="url(#paint2_linear_1494_514)"/>
<defs>
<filter id="filter0_dddd_1494_514" x="-38" y="-5" width="1366" height="520" filterUnits="userSpaceOnUse" color-interpolation-filters="sRGB">
<feFlood flood-opacity="0" result="BackgroundImageFix"/>
<feColorMatrix in="SourceAlpha" type="matrix" values="0 0 0 0 0 0 0 0 0 0 0 0 0 0 0 0 0 0 127 0" result="hardAlpha"/>
<feOffset dx="-2" dy="4"/>
<feGaussianBlur stdDeviation="5"/>
<feColorMatrix type="matrix" values="0 0 0 0 0.568627 0 0 0 0 0.568627 0 0 0 0 0.568627 0 0 0 0.05 0"/>
<feBlend mode="normal" in2="BackgroundImageFix" result="effect1_dropShadow_1494_514"/>
<feColorMatrix in="SourceAlpha" type="matrix" values="0 0 0 0 0 0 0 0 0 0 0 0 0 0 0 0 0 0 127 0" result="hardAlpha"/>
<feOffset dx="-7" dy="17"/>
<feGaussianBlur stdDeviation="9"/>
<feColorMatrix type="matrix" values="0 0 0 0 0.568627 0 0 0 0 0.568627 0 0 0 0 0.568627 0 0 0 0.04 0"/>
<feBlend mode="normal" in2="effect1_dropShadow_1494_514" result="effect2_dropShadow_1494_514"/>
<feColorMatrix in="SourceAlpha" type="matrix" values="0 0 0 0 0 0 0 0 0 0 0 0 0 0 0 0 0 0 127 0" result="hardAlpha"/>
<feOffset dx="-15" dy="37"/>
<feGaussianBlur stdDeviation="12"/>
<feColorMatrix type="matrix" values="0 0 0 0 0.568627 0 0 0 0 0.568627 0 0 0 0 0.568627 0 0 0 0.03 0"/>
<feBlend mode="normal" in2="effect2_dropShadow_1494_514" result="effect3_dropShadow_1494_514"/>
<feColorMatrix in="SourceAlpha" type="matrix" values="0 0 0 0 0 0 0 0 0 0 0 0 0 0 0 0 0 0 127 0" result="hardAlpha"/>
<feOffset dx="-27" dy="66"/>
<feGaussianBlur stdDeviation="14.5"/>
<feColorMatrix type="matrix" values="0 0 0 0 0.568627 0 0 0 0 0.568627 0 0 0 0 0.568627 0 0 0 0.01 0"/>
<feBlend mode="normal" in2="effect3_dropShadow_1494_514" result="effect4_dropShadow_1494_514"/>
<feBlend mode="normal" in="SourceGraphic" in2="effect4_dropShadow_1494_514" result="shape"/>
</filter>
<clipPath id="bgblur_0_1494_514_clip_path" transform="translate(38 5)"><rect x="18" y="20" width="1285" height="400" rx="30"/>
</clipPath><linearGradient id="paint0_linear_1494_514" x1="660.5" y1="147.021" x2="660.5" y2="420" gradientUnits="userSpaceOnUse">
<stop stop-color="#F5D0B0" stop-opacity="0"/>
<stop offset="0.533654" stop-color="#FFB6D0" stop-opacity="0.5"/>
<stop offset="1" stop-color="#E595E4"/>
</linearGradient>
<linearGradient id="paint1_linear_1494_514" x1="129.033" y1="291.794" x2="117.513" y2="-45.7297" gradientUnits="userSpaceOnUse">
<stop stop-color="#F5D0B0" stop-opacity="0"/>
<stop offset="0.533654" stop-color="#FFB6D0" stop-opacity="0.5"/>
<stop offset="1" stop-color="#E595E4"/>
</linearGradient>
<linearGradient id="paint2_linear_1494_514" x1="1210.5" y1="291.794" x2="1222.02" y2="-45.7297" gradientUnits="userSpaceOnUse">
<stop stop-color="#F5D0B0" stop-opacity="0"/>
<stop offset="0.533654" stop-color="#FFB6D0" stop-opacity="0.5"/>
<stop offset="1" stop-color="#E595E4"/>
</linearGradient>
</defs>
</svg>
